# xmcd CD database file generated by Grip 3.0.1
# 
# Track frame offsets:
#       150
#       10727
#       22295
#       33722
#       46110
#       56985
#       68150
#       79217
#       90917
#       102555
#       111695
#       123260
#       134747
#       144825
#       155432
#       166272
#       176477
#       186490
#       197980
#       209067
# 
# Disc length: 2928 seconds
# 
# Revision: 1
# Processed by: cddbd v1.4PL0 Copyright (c) Steve Scherf et al.
# Submitted via: Grip 3.0.1
# 
DISCID=2e0b6e14
DTITLE=Patsy Cline - Walking After Midnight
DYEAR=1997
DGENRE=Country
TTITLE0=I Don't Wanna
TTITLE1=Let The Teardrops Fall
TTITLE2=I've Loved and Lost Again
TTITLE3=Fingerprints
TTITLE4=I Can't Forget
TTITLE5=Just Out Of Reach (Of My Two Arms)
TTITLE6=Hungry For Love
TTITLE7=If I Could Only Stay Asleep
TTITLE8=Today, Tomorrow and Forever
TTITLE9=I Love You Honey
TTITLE10=Never No More
TTITLE11=Walking After Midnight
TTITLE12=Pick Me Up On Your Way Down
TTITLE13=Honky Tonk Merry-Go-Round
TTITLE14=I Cried All TThe Way To The Altar
TTITLE15=Too Many Secrets
TTITLE16=Three Cigarettes (In An Ashtray)
TTITLE17=In Care of The Blues
TTITLE18=Stop The World (And Let Me Off)
TTITLE19=I Can See An Angel
EXTD=
EXTT0=
EXTT1=
EXTT2=
EXTT3=
EXTT4=
EXTT5=
EXTT6=
EXTT7=
EXTT8=
EXTT9=
EXTT10=
EXTT11=
EXTT12=
EXTT13=
EXTT14=
EXTT15=
EXTT16=
EXTT17=
EXTT18=
EXTT19=
PLAYORDER=
